<mxfile host="app.diagrams.net" agent="Mozilla/5.0 (Windows NT 10.0; Win64; x64) AppleWebKit/537.36 (KHTML, like Gecko) Chrome/135.0.0.0 Safari/537.36 OPR/120.0.0.0" version="28.2.1">
  <diagram name="Página-1" id="NIEbe64Oj9opVdbWHVGA">
    <mxGraphModel dx="1644" dy="1860" grid="0" gridSize="10" guides="1" tooltips="1" connect="1" arrows="1" fold="1" page="0" pageScale="1" pageWidth="2827" pageHeight="2169" math="0" shadow="0">
      <root>
        <mxCell id="0" />
        <mxCell id="1" parent="0" />
        <mxCell id="MqyXQc0h3wCXO-l8Q0ls-10" style="edgeStyle=none;curved=1;rounded=0;orthogonalLoop=1;jettySize=auto;html=1;exitX=0;exitY=0.5;exitDx=0;exitDy=0;entryX=1;entryY=0.5;entryDx=0;entryDy=0;fontSize=12;startSize=8;endSize=8;" edge="1" parent="1" source="MqyXQc0h3wCXO-l8Q0ls-1" target="MqyXQc0h3wCXO-l8Q0ls-7">
          <mxGeometry relative="1" as="geometry" />
        </mxCell>
        <mxCell id="MqyXQc0h3wCXO-l8Q0ls-11" style="edgeStyle=none;curved=1;rounded=0;orthogonalLoop=1;jettySize=auto;html=1;fontSize=12;startSize=8;endSize=8;" edge="1" parent="1" target="MqyXQc0h3wCXO-l8Q0ls-8">
          <mxGeometry relative="1" as="geometry">
            <mxPoint x="1395" y="-224" as="sourcePoint" />
          </mxGeometry>
        </mxCell>
        <mxCell id="MqyXQc0h3wCXO-l8Q0ls-12" style="edgeStyle=none;curved=1;rounded=0;orthogonalLoop=1;jettySize=auto;html=1;exitX=0.75;exitY=0;exitDx=0;exitDy=0;entryX=0.5;entryY=1;entryDx=0;entryDy=0;fontSize=12;startSize=8;endSize=8;" edge="1" parent="1" source="MqyXQc0h3wCXO-l8Q0ls-1" target="MqyXQc0h3wCXO-l8Q0ls-9">
          <mxGeometry relative="1" as="geometry" />
        </mxCell>
        <mxCell id="MqyXQc0h3wCXO-l8Q0ls-15" style="edgeStyle=none;curved=1;rounded=0;orthogonalLoop=1;jettySize=auto;html=1;exitX=0.842;exitY=0;exitDx=0;exitDy=0;fontSize=12;startSize=8;endSize=8;exitPerimeter=0;" edge="1" parent="1" source="MqyXQc0h3wCXO-l8Q0ls-1" target="MqyXQc0h3wCXO-l8Q0ls-13">
          <mxGeometry relative="1" as="geometry" />
        </mxCell>
        <mxCell id="MqyXQc0h3wCXO-l8Q0ls-16" style="edgeStyle=none;curved=1;rounded=0;orthogonalLoop=1;jettySize=auto;html=1;exitX=1;exitY=0;exitDx=0;exitDy=0;fontSize=12;startSize=8;endSize=8;" edge="1" parent="1" source="MqyXQc0h3wCXO-l8Q0ls-1" target="MqyXQc0h3wCXO-l8Q0ls-14">
          <mxGeometry relative="1" as="geometry" />
        </mxCell>
        <mxCell id="MqyXQc0h3wCXO-l8Q0ls-74" style="edgeStyle=none;curved=1;rounded=0;orthogonalLoop=1;jettySize=auto;html=1;exitX=0.5;exitY=1;exitDx=0;exitDy=0;entryX=0.5;entryY=0;entryDx=0;entryDy=0;fontSize=12;startSize=8;endSize=8;" edge="1" parent="1" source="MqyXQc0h3wCXO-l8Q0ls-1" target="MqyXQc0h3wCXO-l8Q0ls-70">
          <mxGeometry relative="1" as="geometry" />
        </mxCell>
        <mxCell id="MqyXQc0h3wCXO-l8Q0ls-77" style="edgeStyle=none;curved=1;rounded=0;orthogonalLoop=1;jettySize=auto;html=1;exitX=1;exitY=0.5;exitDx=0;exitDy=0;entryX=0;entryY=0.5;entryDx=0;entryDy=0;fontSize=12;startSize=8;endSize=8;" edge="1" parent="1" source="MqyXQc0h3wCXO-l8Q0ls-1" target="MqyXQc0h3wCXO-l8Q0ls-69">
          <mxGeometry relative="1" as="geometry" />
        </mxCell>
        <mxCell id="MqyXQc0h3wCXO-l8Q0ls-1" value="Usuario" style="rounded=0;whiteSpace=wrap;html=1;" vertex="1" parent="1">
          <mxGeometry x="1347" y="-221" width="120" height="60" as="geometry" />
        </mxCell>
        <mxCell id="MqyXQc0h3wCXO-l8Q0ls-35" style="edgeStyle=none;curved=1;rounded=0;orthogonalLoop=1;jettySize=auto;html=1;exitX=0.5;exitY=0;exitDx=0;exitDy=0;entryX=0.5;entryY=1;entryDx=0;entryDy=0;fontSize=12;startSize=8;endSize=8;" edge="1" parent="1" source="MqyXQc0h3wCXO-l8Q0ls-3" target="MqyXQc0h3wCXO-l8Q0ls-32">
          <mxGeometry relative="1" as="geometry" />
        </mxCell>
        <mxCell id="MqyXQc0h3wCXO-l8Q0ls-36" style="edgeStyle=none;curved=1;rounded=0;orthogonalLoop=1;jettySize=auto;html=1;exitX=0.75;exitY=0;exitDx=0;exitDy=0;entryX=0.5;entryY=1;entryDx=0;entryDy=0;fontSize=12;startSize=8;endSize=8;" edge="1" parent="1" source="MqyXQc0h3wCXO-l8Q0ls-3" target="MqyXQc0h3wCXO-l8Q0ls-31">
          <mxGeometry relative="1" as="geometry" />
        </mxCell>
        <mxCell id="MqyXQc0h3wCXO-l8Q0ls-38" style="edgeStyle=none;curved=1;rounded=0;orthogonalLoop=1;jettySize=auto;html=1;exitX=1;exitY=0.25;exitDx=0;exitDy=0;entryX=0;entryY=0.5;entryDx=0;entryDy=0;fontSize=12;startSize=8;endSize=8;" edge="1" parent="1" source="MqyXQc0h3wCXO-l8Q0ls-3" target="MqyXQc0h3wCXO-l8Q0ls-30">
          <mxGeometry relative="1" as="geometry" />
        </mxCell>
        <mxCell id="MqyXQc0h3wCXO-l8Q0ls-39" style="edgeStyle=none;curved=1;rounded=0;orthogonalLoop=1;jettySize=auto;html=1;exitX=1;exitY=0.75;exitDx=0;exitDy=0;entryX=0;entryY=0.5;entryDx=0;entryDy=0;fontSize=12;startSize=8;endSize=8;" edge="1" parent="1" source="MqyXQc0h3wCXO-l8Q0ls-3" target="MqyXQc0h3wCXO-l8Q0ls-34">
          <mxGeometry relative="1" as="geometry" />
        </mxCell>
        <mxCell id="MqyXQc0h3wCXO-l8Q0ls-43" style="edgeStyle=none;curved=1;rounded=0;orthogonalLoop=1;jettySize=auto;html=1;exitX=1;exitY=1;exitDx=0;exitDy=0;entryX=0.5;entryY=0;entryDx=0;entryDy=0;fontSize=12;startSize=8;endSize=8;" edge="1" parent="1" source="MqyXQc0h3wCXO-l8Q0ls-3" target="MqyXQc0h3wCXO-l8Q0ls-42">
          <mxGeometry relative="1" as="geometry" />
        </mxCell>
        <mxCell id="MqyXQc0h3wCXO-l8Q0ls-3" value="Proyecto" style="rounded=0;whiteSpace=wrap;html=1;" vertex="1" parent="1">
          <mxGeometry x="1632.5" y="58" width="120" height="60" as="geometry" />
        </mxCell>
        <mxCell id="MqyXQc0h3wCXO-l8Q0ls-63" style="edgeStyle=none;curved=1;rounded=0;orthogonalLoop=1;jettySize=auto;html=1;exitX=0.75;exitY=0;exitDx=0;exitDy=0;entryX=0.5;entryY=1;entryDx=0;entryDy=0;fontSize=12;startSize=8;endSize=8;" edge="1" parent="1" source="MqyXQc0h3wCXO-l8Q0ls-4" target="MqyXQc0h3wCXO-l8Q0ls-58">
          <mxGeometry relative="1" as="geometry" />
        </mxCell>
        <mxCell id="MqyXQc0h3wCXO-l8Q0ls-64" style="edgeStyle=none;curved=1;rounded=0;orthogonalLoop=1;jettySize=auto;html=1;exitX=0.25;exitY=0;exitDx=0;exitDy=0;entryX=0.5;entryY=1;entryDx=0;entryDy=0;fontSize=12;startSize=8;endSize=8;" edge="1" parent="1" source="MqyXQc0h3wCXO-l8Q0ls-4">
          <mxGeometry relative="1" as="geometry">
            <mxPoint x="2968" y="-326" as="targetPoint" />
          </mxGeometry>
        </mxCell>
        <mxCell id="MqyXQc0h3wCXO-l8Q0ls-65" style="edgeStyle=none;curved=1;rounded=0;orthogonalLoop=1;jettySize=auto;html=1;exitX=0;exitY=0.25;exitDx=0;exitDy=0;fontSize=12;startSize=8;endSize=8;" edge="1" parent="1" source="MqyXQc0h3wCXO-l8Q0ls-4" target="MqyXQc0h3wCXO-l8Q0ls-59">
          <mxGeometry relative="1" as="geometry" />
        </mxCell>
        <mxCell id="MqyXQc0h3wCXO-l8Q0ls-4" value="Mensaje" style="rounded=0;whiteSpace=wrap;html=1;" vertex="1" parent="1">
          <mxGeometry x="2986" y="-221" width="120" height="60" as="geometry" />
        </mxCell>
        <mxCell id="MqyXQc0h3wCXO-l8Q0ls-26" style="edgeStyle=none;curved=1;rounded=0;orthogonalLoop=1;jettySize=auto;html=1;exitX=0.5;exitY=0;exitDx=0;exitDy=0;fontSize=12;startSize=8;endSize=8;" edge="1" parent="1" source="MqyXQc0h3wCXO-l8Q0ls-6" target="MqyXQc0h3wCXO-l8Q0ls-22">
          <mxGeometry relative="1" as="geometry" />
        </mxCell>
        <mxCell id="MqyXQc0h3wCXO-l8Q0ls-72" style="edgeStyle=none;curved=1;rounded=0;orthogonalLoop=1;jettySize=auto;html=1;exitX=1;exitY=0.5;exitDx=0;exitDy=0;entryX=0;entryY=0.5;entryDx=0;entryDy=0;fontSize=12;startSize=8;endSize=8;" edge="1" parent="1" source="MqyXQc0h3wCXO-l8Q0ls-6" target="MqyXQc0h3wCXO-l8Q0ls-68">
          <mxGeometry relative="1" as="geometry" />
        </mxCell>
        <mxCell id="MqyXQc0h3wCXO-l8Q0ls-6" value="Empresa" style="rounded=0;whiteSpace=wrap;html=1;" vertex="1" parent="1">
          <mxGeometry x="477.5" y="-233" width="120" height="60" as="geometry" />
        </mxCell>
        <mxCell id="MqyXQc0h3wCXO-l8Q0ls-7" value="id_usuario" style="ellipse;whiteSpace=wrap;html=1;" vertex="1" parent="1">
          <mxGeometry x="1154" y="-287" width="82" height="70" as="geometry" />
        </mxCell>
        <mxCell id="MqyXQc0h3wCXO-l8Q0ls-8" value="nombre" style="ellipse;whiteSpace=wrap;html=1;" vertex="1" parent="1">
          <mxGeometry x="1236" y="-368" width="82" height="70" as="geometry" />
        </mxCell>
        <mxCell id="MqyXQc0h3wCXO-l8Q0ls-9" value="apellido" style="ellipse;whiteSpace=wrap;html=1;" vertex="1" parent="1">
          <mxGeometry x="1347" y="-413" width="82" height="70" as="geometry" />
        </mxCell>
        <mxCell id="MqyXQc0h3wCXO-l8Q0ls-13" value="email" style="ellipse;whiteSpace=wrap;html=1;" vertex="1" parent="1">
          <mxGeometry x="1449" y="-424" width="82" height="70" as="geometry" />
        </mxCell>
        <mxCell id="MqyXQc0h3wCXO-l8Q0ls-14" value="contraseña" style="ellipse;whiteSpace=wrap;html=1;" vertex="1" parent="1">
          <mxGeometry x="1555" y="-395" width="82" height="70" as="geometry" />
        </mxCell>
        <mxCell id="MqyXQc0h3wCXO-l8Q0ls-17" value="rol" style="ellipse;whiteSpace=wrap;html=1;" vertex="1" parent="1">
          <mxGeometry x="1627" y="-327" width="82" height="70" as="geometry" />
        </mxCell>
        <mxCell id="MqyXQc0h3wCXO-l8Q0ls-18" style="edgeStyle=none;curved=1;rounded=0;orthogonalLoop=1;jettySize=auto;html=1;exitX=1;exitY=0.25;exitDx=0;exitDy=0;entryX=0.037;entryY=0.786;entryDx=0;entryDy=0;entryPerimeter=0;fontSize=12;startSize=8;endSize=8;" edge="1" parent="1" source="MqyXQc0h3wCXO-l8Q0ls-1" target="MqyXQc0h3wCXO-l8Q0ls-17">
          <mxGeometry relative="1" as="geometry" />
        </mxCell>
        <mxCell id="MqyXQc0h3wCXO-l8Q0ls-19" value="(PK)" style="text;html=1;align=center;verticalAlign=middle;resizable=0;points=[];autosize=1;strokeColor=none;fillColor=none;fontSize=16;" vertex="1" parent="1">
          <mxGeometry x="1154" y="-217" width="50" height="31" as="geometry" />
        </mxCell>
        <mxCell id="MqyXQc0h3wCXO-l8Q0ls-20" value="id_empresa" style="ellipse;whiteSpace=wrap;html=1;" vertex="1" parent="1">
          <mxGeometry x="365.5" y="-330" width="82" height="70" as="geometry" />
        </mxCell>
        <mxCell id="MqyXQc0h3wCXO-l8Q0ls-21" value="sector" style="ellipse;whiteSpace=wrap;html=1;" vertex="1" parent="1">
          <mxGeometry x="597.5" y="-362" width="82" height="70" as="geometry" />
        </mxCell>
        <mxCell id="MqyXQc0h3wCXO-l8Q0ls-22" value="direccion" style="ellipse;whiteSpace=wrap;html=1;" vertex="1" parent="1">
          <mxGeometry x="491.5" y="-381" width="82" height="70" as="geometry" />
        </mxCell>
        <mxCell id="MqyXQc0h3wCXO-l8Q0ls-23" value="nombre_empresa" style="ellipse;whiteSpace=wrap;html=1;" vertex="1" parent="1">
          <mxGeometry x="714.5" y="-317" width="120" height="70" as="geometry" />
        </mxCell>
        <mxCell id="MqyXQc0h3wCXO-l8Q0ls-24" value="(pk)" style="text;html=1;align=center;verticalAlign=middle;resizable=0;points=[];autosize=1;strokeColor=none;fillColor=none;fontSize=16;" vertex="1" parent="1">
          <mxGeometry x="343" y="-269.5" width="46" height="31" as="geometry" />
        </mxCell>
        <mxCell id="MqyXQc0h3wCXO-l8Q0ls-25" style="edgeStyle=none;curved=1;rounded=0;orthogonalLoop=1;jettySize=auto;html=1;exitX=0;exitY=0;exitDx=0;exitDy=0;entryX=0.72;entryY=0.943;entryDx=0;entryDy=0;entryPerimeter=0;fontSize=12;startSize=8;endSize=8;" edge="1" parent="1" source="MqyXQc0h3wCXO-l8Q0ls-6" target="MqyXQc0h3wCXO-l8Q0ls-20">
          <mxGeometry relative="1" as="geometry" />
        </mxCell>
        <mxCell id="MqyXQc0h3wCXO-l8Q0ls-27" style="edgeStyle=none;curved=1;rounded=0;orthogonalLoop=1;jettySize=auto;html=1;exitX=0.75;exitY=0;exitDx=0;exitDy=0;entryX=0.39;entryY=0.986;entryDx=0;entryDy=0;entryPerimeter=0;fontSize=12;startSize=8;endSize=8;" edge="1" parent="1" source="MqyXQc0h3wCXO-l8Q0ls-6" target="MqyXQc0h3wCXO-l8Q0ls-21">
          <mxGeometry relative="1" as="geometry" />
        </mxCell>
        <mxCell id="MqyXQc0h3wCXO-l8Q0ls-28" style="edgeStyle=none;curved=1;rounded=0;orthogonalLoop=1;jettySize=auto;html=1;exitX=1;exitY=0.5;exitDx=0;exitDy=0;entryX=0.061;entryY=0.8;entryDx=0;entryDy=0;entryPerimeter=0;fontSize=12;startSize=8;endSize=8;" edge="1" parent="1" source="MqyXQc0h3wCXO-l8Q0ls-6" target="MqyXQc0h3wCXO-l8Q0ls-23">
          <mxGeometry relative="1" as="geometry" />
        </mxCell>
        <mxCell id="MqyXQc0h3wCXO-l8Q0ls-49" style="edgeStyle=none;curved=1;rounded=0;orthogonalLoop=1;jettySize=auto;html=1;exitX=1;exitY=0.25;exitDx=0;exitDy=0;entryX=0;entryY=0.5;entryDx=0;entryDy=0;fontSize=12;startSize=8;endSize=8;" edge="1" parent="1" source="MqyXQc0h3wCXO-l8Q0ls-29" target="MqyXQc0h3wCXO-l8Q0ls-47">
          <mxGeometry relative="1" as="geometry">
            <mxPoint x="2395" y="-266.5" as="targetPoint" />
          </mxGeometry>
        </mxCell>
        <mxCell id="MqyXQc0h3wCXO-l8Q0ls-51" style="edgeStyle=none;curved=1;rounded=0;orthogonalLoop=1;jettySize=auto;html=1;exitX=1;exitY=0;exitDx=0;exitDy=0;fontSize=12;startSize=8;endSize=8;" edge="1" parent="1" source="MqyXQc0h3wCXO-l8Q0ls-29" target="MqyXQc0h3wCXO-l8Q0ls-46">
          <mxGeometry relative="1" as="geometry" />
        </mxCell>
        <mxCell id="MqyXQc0h3wCXO-l8Q0ls-52" style="edgeStyle=none;curved=1;rounded=0;orthogonalLoop=1;jettySize=auto;html=1;exitX=0.75;exitY=0;exitDx=0;exitDy=0;entryX=0.5;entryY=1;entryDx=0;entryDy=0;fontSize=12;startSize=8;endSize=8;" edge="1" parent="1" source="MqyXQc0h3wCXO-l8Q0ls-29" target="MqyXQc0h3wCXO-l8Q0ls-44">
          <mxGeometry relative="1" as="geometry" />
        </mxCell>
        <mxCell id="MqyXQc0h3wCXO-l8Q0ls-82" style="edgeStyle=none;curved=1;rounded=0;orthogonalLoop=1;jettySize=auto;html=1;exitX=1;exitY=0.5;exitDx=0;exitDy=0;entryX=0;entryY=0.5;entryDx=0;entryDy=0;fontSize=12;startSize=8;endSize=8;" edge="1" parent="1" source="MqyXQc0h3wCXO-l8Q0ls-29" target="MqyXQc0h3wCXO-l8Q0ls-79">
          <mxGeometry relative="1" as="geometry" />
        </mxCell>
        <mxCell id="MqyXQc0h3wCXO-l8Q0ls-29" value="chat" style="rounded=0;whiteSpace=wrap;html=1;" vertex="1" parent="1">
          <mxGeometry x="2190" y="-217" width="120" height="60" as="geometry" />
        </mxCell>
        <mxCell id="MqyXQc0h3wCXO-l8Q0ls-30" value="enlace_github" style="ellipse;whiteSpace=wrap;html=1;" vertex="1" parent="1">
          <mxGeometry x="1903.5" y="36" width="82" height="70" as="geometry" />
        </mxCell>
        <mxCell id="MqyXQc0h3wCXO-l8Q0ls-31" value="titulo" style="ellipse;whiteSpace=wrap;html=1;" vertex="1" parent="1">
          <mxGeometry x="1748.5" y="-84" width="82" height="70" as="geometry" />
        </mxCell>
        <mxCell id="MqyXQc0h3wCXO-l8Q0ls-32" value="id_proyecto" style="ellipse;whiteSpace=wrap;html=1;" vertex="1" parent="1">
          <mxGeometry x="1639.5" y="-76" width="82" height="70" as="geometry" />
        </mxCell>
        <mxCell id="MqyXQc0h3wCXO-l8Q0ls-33" value="descripcion" style="ellipse;whiteSpace=wrap;html=1;" vertex="1" parent="1">
          <mxGeometry x="1865.5" y="-56" width="82" height="70" as="geometry" />
        </mxCell>
        <mxCell id="MqyXQc0h3wCXO-l8Q0ls-34" value="id_usuario" style="ellipse;whiteSpace=wrap;html=1;" vertex="1" parent="1">
          <mxGeometry x="1900.5" y="138" width="82" height="70" as="geometry" />
        </mxCell>
        <mxCell id="MqyXQc0h3wCXO-l8Q0ls-37" style="edgeStyle=none;curved=1;rounded=0;orthogonalLoop=1;jettySize=auto;html=1;exitX=1;exitY=0;exitDx=0;exitDy=0;entryX=0.207;entryY=0.971;entryDx=0;entryDy=0;entryPerimeter=0;fontSize=12;startSize=8;endSize=8;" edge="1" parent="1" source="MqyXQc0h3wCXO-l8Q0ls-3" target="MqyXQc0h3wCXO-l8Q0ls-33">
          <mxGeometry relative="1" as="geometry" />
        </mxCell>
        <mxCell id="MqyXQc0h3wCXO-l8Q0ls-40" value="(pk)" style="text;html=1;align=center;verticalAlign=middle;resizable=0;points=[];autosize=1;strokeColor=none;fillColor=none;fontSize=16;" vertex="1" parent="1">
          <mxGeometry x="1590" y="-30.5" width="46" height="31" as="geometry" />
        </mxCell>
        <mxCell id="MqyXQc0h3wCXO-l8Q0ls-41" value="(fk)" style="text;html=1;align=center;verticalAlign=middle;resizable=0;points=[];autosize=1;strokeColor=none;fillColor=none;fontSize=16;" vertex="1" parent="1">
          <mxGeometry x="1937.5" y="210" width="41" height="31" as="geometry" />
        </mxCell>
        <mxCell id="MqyXQc0h3wCXO-l8Q0ls-42" value="fecha_subida" style="ellipse;whiteSpace=wrap;html=1;" vertex="1" parent="1">
          <mxGeometry x="1803.5" y="203" width="82" height="70" as="geometry" />
        </mxCell>
        <mxCell id="MqyXQc0h3wCXO-l8Q0ls-44" value="id_chat" style="ellipse;whiteSpace=wrap;html=1;" vertex="1" parent="1">
          <mxGeometry x="2209" y="-386.5" width="82" height="70" as="geometry" />
        </mxCell>
        <mxCell id="MqyXQc0h3wCXO-l8Q0ls-46" value="fecha_inicio" style="ellipse;whiteSpace=wrap;html=1;" vertex="1" parent="1">
          <mxGeometry x="2310" y="-383.5" width="82" height="70" as="geometry" />
        </mxCell>
        <mxCell id="MqyXQc0h3wCXO-l8Q0ls-47" value="id_usuario" style="ellipse;whiteSpace=wrap;html=1;" vertex="1" parent="1">
          <mxGeometry x="2392" y="-319.5" width="82" height="70" as="geometry" />
        </mxCell>
        <mxCell id="MqyXQc0h3wCXO-l8Q0ls-53" value="(pk)" style="text;html=1;align=center;verticalAlign=middle;resizable=0;points=[];autosize=1;strokeColor=none;fillColor=none;fontSize=16;" vertex="1" parent="1">
          <mxGeometry x="2175" y="-341.5" width="46" height="31" as="geometry" />
        </mxCell>
        <mxCell id="MqyXQc0h3wCXO-l8Q0ls-54" value="(fk)" style="text;html=1;align=center;verticalAlign=middle;resizable=0;points=[];autosize=1;strokeColor=none;fillColor=none;fontSize=16;" vertex="1" parent="1">
          <mxGeometry x="2433" y="-249.5" width="41" height="31" as="geometry" />
        </mxCell>
        <mxCell id="MqyXQc0h3wCXO-l8Q0ls-56" value="(fk)" style="text;html=1;align=center;verticalAlign=middle;resizable=0;points=[];autosize=1;strokeColor=none;fillColor=none;fontSize=16;" vertex="1" parent="1">
          <mxGeometry x="2867" y="-250" width="41" height="31" as="geometry" />
        </mxCell>
        <mxCell id="MqyXQc0h3wCXO-l8Q0ls-57" value="contenido" style="ellipse;whiteSpace=wrap;html=1;" vertex="1" parent="1">
          <mxGeometry x="3186.5" y="-307" width="82" height="70" as="geometry" />
        </mxCell>
        <mxCell id="MqyXQc0h3wCXO-l8Q0ls-58" value="id_mensaje" style="ellipse;whiteSpace=wrap;html=1;" vertex="1" parent="1">
          <mxGeometry x="3048" y="-383" width="82" height="70" as="geometry" />
        </mxCell>
        <mxCell id="MqyXQc0h3wCXO-l8Q0ls-59" value="id_chat" style="ellipse;whiteSpace=wrap;html=1;" vertex="1" parent="1">
          <mxGeometry x="2852" y="-318" width="82" height="70" as="geometry" />
        </mxCell>
        <mxCell id="MqyXQc0h3wCXO-l8Q0ls-60" value="fecha_hora" style="ellipse;whiteSpace=wrap;html=1;" vertex="1" parent="1">
          <mxGeometry x="2919" y="-398" width="82" height="70" as="geometry" />
        </mxCell>
        <mxCell id="MqyXQc0h3wCXO-l8Q0ls-62" style="edgeStyle=none;curved=1;rounded=0;orthogonalLoop=1;jettySize=auto;html=1;exitX=1;exitY=0.25;exitDx=0;exitDy=0;entryX=0.055;entryY=0.814;entryDx=0;entryDy=0;entryPerimeter=0;fontSize=12;startSize=8;endSize=8;" edge="1" parent="1" source="MqyXQc0h3wCXO-l8Q0ls-4" target="MqyXQc0h3wCXO-l8Q0ls-57">
          <mxGeometry relative="1" as="geometry" />
        </mxCell>
        <mxCell id="MqyXQc0h3wCXO-l8Q0ls-66" value="&lt;span style=&quot;color: rgb(255, 255, 255); font-family: Helvetica; font-size: 16px; font-style: normal; font-variant-ligatures: normal; font-variant-caps: normal; font-weight: 400; letter-spacing: normal; orphans: 2; text-align: center; text-indent: 0px; text-transform: none; widows: 2; word-spacing: 0px; -webkit-text-stroke-width: 0px; white-space: nowrap; background-color: rgb(27, 29, 30); text-decoration-thickness: initial; text-decoration-style: initial; text-decoration-color: initial; float: none; display: inline !important;&quot;&gt;(pk)&lt;/span&gt;" style="text;whiteSpace=wrap;html=1;" vertex="1" parent="1">
          <mxGeometry x="3130" y="-341" width="38" height="34" as="geometry" />
        </mxCell>
        <mxCell id="MqyXQc0h3wCXO-l8Q0ls-73" style="edgeStyle=none;curved=1;rounded=0;orthogonalLoop=1;jettySize=auto;html=1;exitX=1;exitY=0.5;exitDx=0;exitDy=0;entryX=0;entryY=0.5;entryDx=0;entryDy=0;fontSize=12;startSize=8;endSize=8;" edge="1" parent="1" source="MqyXQc0h3wCXO-l8Q0ls-68" target="MqyXQc0h3wCXO-l8Q0ls-1">
          <mxGeometry relative="1" as="geometry" />
        </mxCell>
        <mxCell id="MqyXQc0h3wCXO-l8Q0ls-68" value="Tiene" style="rhombus;whiteSpace=wrap;html=1;" vertex="1" parent="1">
          <mxGeometry x="941" y="-237" width="80" height="80" as="geometry" />
        </mxCell>
        <mxCell id="MqyXQc0h3wCXO-l8Q0ls-78" style="edgeStyle=none;curved=1;rounded=0;orthogonalLoop=1;jettySize=auto;html=1;exitX=1;exitY=0.5;exitDx=0;exitDy=0;entryX=0;entryY=0.5;entryDx=0;entryDy=0;fontSize=12;startSize=8;endSize=8;" edge="1" parent="1" source="MqyXQc0h3wCXO-l8Q0ls-69" target="MqyXQc0h3wCXO-l8Q0ls-29">
          <mxGeometry relative="1" as="geometry" />
        </mxCell>
        <mxCell id="MqyXQc0h3wCXO-l8Q0ls-69" value="participa en" style="rhombus;whiteSpace=wrap;html=1;" vertex="1" parent="1">
          <mxGeometry x="1731" y="-231" width="80" height="80" as="geometry" />
        </mxCell>
        <mxCell id="MqyXQc0h3wCXO-l8Q0ls-75" style="edgeStyle=none;curved=1;rounded=0;orthogonalLoop=1;jettySize=auto;html=1;exitX=1;exitY=0.5;exitDx=0;exitDy=0;entryX=0;entryY=0.5;entryDx=0;entryDy=0;fontSize=12;startSize=8;endSize=8;" edge="1" parent="1" source="MqyXQc0h3wCXO-l8Q0ls-70" target="MqyXQc0h3wCXO-l8Q0ls-3">
          <mxGeometry relative="1" as="geometry" />
        </mxCell>
        <mxCell id="MqyXQc0h3wCXO-l8Q0ls-70" value="sube" style="rhombus;whiteSpace=wrap;html=1;" vertex="1" parent="1">
          <mxGeometry x="1369" y="48" width="80" height="80" as="geometry" />
        </mxCell>
        <mxCell id="MqyXQc0h3wCXO-l8Q0ls-83" style="edgeStyle=none;curved=1;rounded=0;orthogonalLoop=1;jettySize=auto;html=1;exitX=1;exitY=0.5;exitDx=0;exitDy=0;fontSize=12;startSize=8;endSize=8;" edge="1" parent="1" source="MqyXQc0h3wCXO-l8Q0ls-79" target="MqyXQc0h3wCXO-l8Q0ls-4">
          <mxGeometry relative="1" as="geometry" />
        </mxCell>
        <mxCell id="MqyXQc0h3wCXO-l8Q0ls-79" value="Contiene" style="rhombus;whiteSpace=wrap;html=1;" vertex="1" parent="1">
          <mxGeometry x="2644" y="-231" width="80" height="80" as="geometry" />
        </mxCell>
      </root>
    </mxGraphModel>
  </diagram>
</mxfile>
